<svg width="57" height="57" viewBox="0 0 57 57" fill="none" xmlns="http://www.w3.org/2000/svg">
<path d="M8.18636 45.0692C14.1119 41.7198 20.9577 39.8083 28.25 39.8083C35.5423 39.8083 42.3881 41.7198 48.3137 45.0692M37 22.3083C37 27.1408 33.0825 31.0583 28.25 31.0583C23.4175 31.0583 19.5 27.1408 19.5 22.3083C19.5 17.4758 23.4175 13.5583 28.25 13.5583C33.0825 13.5583 37 17.4758 37 22.3083ZM54.5 28.1416C54.5 42.6391 42.7475 54.3916 28.25 54.3916C13.7525 54.3916 2 42.6391 2 28.1416C2 13.6441 13.7525 1.8916 28.25 1.8916C42.7475 1.8916 54.5 13.6441 54.5 28.1416Z" stroke="#F0F0F0" stroke-width="3.75" stroke-linecap="round" stroke-linejoin="round"/>
</svg>
