<svg width="47" height="55" viewBox="0 0 47 55" fill="none" xmlns="http://www.w3.org/2000/svg">
<path d="M23.237 54.6753C17.086 54.6753 11.1629 52.1694 6.83442 47.8409C2.50595 43.5125 0 37.5893 0 31.4383C0 25.2873 2.50595 19.3642 6.83442 15.0357C10.4794 11.3907 15.4913 8.88474 20.9589 8.42912C21.4145 8.42912 21.6423 8.2013 21.6423 7.74567V0.911256C21.6423 0.227814 22.098 0 22.3258 0C22.5536 0 22.7814 0 22.7814 0.227814L36.4502 10.7073C36.678 10.9351 36.678 11.1629 36.678 11.3907C36.678 11.6185 36.678 11.8463 36.4502 11.8463L22.7814 22.3258C22.7814 22.5536 22.5536 22.5536 22.3258 22.5536C21.8701 22.5536 21.4145 22.3258 21.4145 21.6423V14.3523C21.4145 14.1245 21.4145 13.8966 21.1867 13.8966C21.1867 13.6688 20.9589 13.6688 20.9589 13.6688C16.8582 14.1245 13.2132 15.947 10.4794 18.6807C7.06223 22.0979 5.23972 26.6542 5.23972 31.4383C5.23972 36.2224 7.06223 40.7787 10.4794 44.1959C13.8966 47.6131 18.4529 49.4356 23.237 49.4356C28.0211 49.4356 32.5774 47.6131 35.9946 44.1959C39.184 41.0065 41.0065 36.9059 41.2343 32.5774C41.2343 31.2105 42.3734 30.0714 43.7403 30.0714C44.6515 30.0714 45.1072 30.5271 45.5628 30.9827C46.0184 31.4383 46.2462 32.1218 46.2462 32.8052C45.7906 38.5005 43.5125 43.7403 39.4118 47.6131C35.3112 52.1694 29.388 54.6753 23.237 54.6753Z" fill="#F0F0F0"/>
</svg>
