<svg width="32" height="32" viewBox="0 0 32 32" fill="none" xmlns="http://www.w3.org/2000/svg">
<path fill-rule="evenodd" clip-rule="evenodd" d="M32 16C32 7.18049 24.8195 8.56265e-08 16 1.90798e-07C7.18049 2.9597e-07 1.99298e-06 7.18049 2.09815e-06 16C2.20332e-06 24.8195 7.18049 32 16 32C24.8195 32 32 24.8195 32 16ZM16 30.0488C8.27317 30.0488 1.95122 23.7268 1.95122 16C1.95122 8.27317 8.27317 1.95122 16 1.95122C23.7268 1.95122 30.0488 8.27317 30.0488 16C30.0488 23.7268 23.7268 30.0488 16 30.0488ZM15.6488 7.96095L15.6488 8.039C15.6488 8.27315 15.7268 8.58534 15.961 8.74144L23.1415 15.9219L15.961 23.1024C15.5707 23.4927 15.5707 24.1171 15.961 24.5073C16.3512 24.8975 16.9756 24.8975 17.3658 24.5073L25.1707 16.7024C25.561 16.3122 25.561 15.6878 25.1707 15.2975L17.2878 7.41461C17.0537 7.10242 16.5854 7.02437 16.2732 7.18047C15.8829 7.25851 15.6488 7.57071 15.6488 7.96095ZM17.6 15.2976C17.9902 15.6878 17.9902 16.3122 17.6 16.7024L9.71707 24.5854C9.56097 24.8195 9.24878 24.8976 9.01463 24.8976C8.78048 24.8976 8.46829 24.7415 8.31219 24.5854C8.07805 24.4293 7.99999 24.1171 7.99999 23.8829C7.99999 23.6488 8.15609 23.3366 8.31219 23.1805L15.4927 16L8.31219 8.81952C8.07804 8.66342 7.99999 8.35123 7.99999 8.03903C8.07804 7.64879 8.31219 7.33659 8.70243 7.1805C9.01463 7.0244 9.48292 7.10245 9.71707 7.41464L17.6 15.2976Z" fill="#545864"/>
</svg>
